<svg xmlns="http://www.w3.org/2000/svg" xmlns:xlink="http://www.w3.org/1999/xlink" viewBox="0 0 235.65 235.65"><defs><style>.cls-1,.cls-2{fill:none;}.cls-2{stroke-miterlimit:10;stroke-width:8px;stroke:url(#Dégradé_sans_nom_11);}.cls-3{fill:url(#Dégradé_sans_nom_45);}.cls-4{clip-path:url(#clip-path);}.cls-5{fill:#fff;}.cls-6{fill:url(#Dégradé_sans_nom_45-2);}.cls-7{clip-path:url(#clip-path-2);}.cls-8{fill:url(#Dégradé_sans_nom_73);}</style><linearGradient id="Dégradé_sans_nom_11" y1="117.83" x2="235.65" y2="117.83" gradientUnits="userSpaceOnUse"><stop offset="0" stop-color="#00c58c"/><stop offset="0.59" stop-color="#00de6c"/><stop offset="1" stop-color="#00ec5b"/></linearGradient><linearGradient id="Dégradé_sans_nom_45" x1="229.94" y1="137.59" x2="5.71" y2="98.06" gradientUnits="userSpaceOnUse"><stop offset="0" stop-color="#00ec5b"/><stop offset="1" stop-color="#00c58c"/></linearGradient><clipPath id="clip-path"><circle class="cls-1" cx="117.83" cy="117.83" r="113.83"/></clipPath><linearGradient id="Dégradé_sans_nom_45-2" x1="88.02" y1="115.98" x2="105.7" y2="115.98" xlink:href="#Dégradé_sans_nom_45"/><clipPath id="clip-path-2"><circle class="cls-2" cx="117.83" cy="117.83" r="113.83"/></clipPath><linearGradient id="Dégradé_sans_nom_73" x1="-829.23" y1="186.7" x2="-690.83" y2="162.29" gradientTransform="matrix(-1, 0, 0, 1, -654.92, 0)" gradientUnits="userSpaceOnUse"><stop offset="0" stop-color="#bdfbd5"/><stop offset="0.26" stop-color="#c1fbd7"/><stop offset="0.5" stop-color="#ccfcdf"/><stop offset="0.73" stop-color="#dffdeb"/><stop offset="0.96" stop-color="#fafffc"/><stop offset="1" stop-color="#fff"/></linearGradient></defs><g id="Layer_2" data-name="Layer 2"><g id="Calque_1" data-name="Calque 1"><circle class="cls-3" cx="117.83" cy="117.83" r="113.83"/><g class="cls-4"><path class="cls-5" d="M73.25,99.51s-31,45.26-31.76,48.17c0,0-8.25,18.64,18.32,20.58,0,0,14.16-1,53.26-17.41,0,0,34.21-11.83,12.11-39.34,0,0,27.72,9.82,37,24.12.52.81,1,1.66,1.53,2.43,3.86,5.35,17.59,27.43,2.72,53.38,0,.06-.06.1-.08.15-1,2.07-37.35,49-127,35.86l-.26.06c-.87.32-.16-.26.26-.06,7.75,3.71,22.88,5.84,35.09,6.88,13.89,1.2,28-.44,41.94-1.25a290.85,290.85,0,0,0,41.51-5.37,236.25,236.25,0,0,0,40.34-11.89c12.38-5,23.78-12.37,35.57-18.76L231.2,169s-2-33.11-10.72-50.75c-.83-1.68-1.63-3.37-2.56-5-4.81-8.38-16.58-33.17-47.08-47.5h0l-10.5,11.83h0l5-14.54h0c-.08,0-24.79-10.32-32.24-7.68h0s-2.47,14.24-2.48,14.29h0l-3.53-14.72h0s-17.1-3-34.64,2.55h0l7.17,14.2s0,.08,0,.07c-1-.29-9.94-2.46-17,14h0L16,71.2h0L73.25,99.51Z"/></g><path class="cls-6" d="M105.7,110.68,89.84,122.57s-4.9-5.83,1.4-10.73A15.21,15.21,0,0,1,105.7,110.68Z"/><g class="cls-7"><path class="cls-8" d="M25.15,223.3s79.24,6.28,93.63-25.5-6.17-46.67-6.17-46.67,18.76-5.78,19.6-22.67c0,0,1.55-6.3-7-17,0,0,31.28,8.79,38.74,21.89a62.28,62.28,0,0,0,3.66,5.67c7.19,9.79,25.82,44.41-23.17,76.2C86.48,252.86,25.15,223.3,25.15,223.3Z"/></g><circle class="cls-2" cx="117.83" cy="117.83" r="113.83"/></g></g></svg>