<svg id="图层_1" data-name="图层 1" xmlns="http://www.w3.org/2000/svg" viewBox="0 0 512 512"><defs><style>.cls-1{fill:#eb5c20;}</style></defs><path class="cls-1" d="M256,6C117.93,6,6,117.93,6,256S117.93,506,256,506,506,394.07,506,256,394.07,6,256,6ZM447.43,341.88a214.82,214.82,0,0,1-23.36,29.21,186,186,0,0,1-34.21,28.32A177.22,177.22,0,0,1,348.58,419a150.77,150.77,0,0,1-47.28,7.32q-42,0-77.4-12.24t-61.09-34.56a157.24,157.24,0,0,1-53.45-103.43H70a7.23,7.23,0,0,1-7.23-7.23V243.17A7.23,7.23,0,0,1,70,235.94h39.43A162.16,162.16,0,0,1,122,187.72a158.09,158.09,0,0,1,38.52-53.89q24.84-22.68,59.52-35.4t76.68-12.72q28.09,0,51.38,6.6a170.12,170.12,0,0,1,42.36,18.24,159.41,159.41,0,0,1,34.08,27.84,209.24,209.24,0,0,1,23.95,31.42,5.28,5.28,0,0,1-1.44,7l-25.49,17.84a5.07,5.07,0,0,1-7-1.15A260.56,260.56,0,0,0,395,170a171.31,171.31,0,0,0-25.81-22.68,124.85,124.85,0,0,0-28.8-15.36A89.2,89.2,0,0,0,309,126.27a110.23,110.23,0,0,0-42.6,8.4,101.5,101.5,0,0,0-35.64,24.84Q215.37,176,206.25,200.2a143.29,143.29,0,0,0-8.11,35.74h39.43a7.23,7.23,0,0,1,7.23,7.23v25.66a7.23,7.23,0,0,1-7.23,7.23h-39.4a137.42,137.42,0,0,0,8.56,36q9.6,24.25,25.44,40.69a106.84,106.84,0,0,0,36.49,25,111.49,111.49,0,0,0,43,8.52,85.22,85.22,0,0,0,31.81-5.88,111.25,111.25,0,0,0,27.59-16,169.31,169.31,0,0,0,24.13-23.29q9.66-11.29,18.62-23.68a5.1,5.1,0,0,1,7.14-1.1l25.24,18.52A5.27,5.27,0,0,1,447.43,341.88Z"/></svg>
